<svg xmlns="http://www.w3.org/2000/svg" viewBox="0 0 100 125" x="0px" y="0px"><path d="M74.3972222,50.2611111 L74.3972222,50.0305556 L74.3972222,50 C74.3976116,42.1884022 70.6578294,34.8488538 64.3377902,30.2577576 C58.0177511,25.6666613 49.8815878,24.3791098 42.4527778,26.7944444 C45.6632045,21.3594352 49.8979877,16.5991954 54.9222222,12.7777778 L49.0083333,5.03055556 C29.7527778,19.7222222 26.3361111,40.325 25.7305556,47.4722222 C25.6546296,48.2018519 25.612963,48.9425926 25.6055556,49.6944444 L25.6055556,50.0027778 C25.6051661,57.8143755 29.3449484,65.1539239 35.6649875,69.7450202 C41.9850267,74.3361165 50.12119,75.623668 57.55,73.2083333 C54.338407,78.6425545 50.1026914,83.4018384 45.0777778,87.2222222 L50.9916667,94.975 C70.2388889,80.2972222 73.6638889,59.6972222 74.2694444,52.5388889 C74.3472222,51.787037 74.3898148,51.0277778 74.3972222,50.2611111 Z M50,64.65 C41.9132869,64.6408124 35.3604319,58.0867147 35.3527778,50 L35.3527778,49.6944444 C35.3527778,49.4166667 35.3833333,48.9972222 35.4305556,48.4194444 C36.2191843,40.6371431 42.9835566,34.8478319 50.7942954,35.270335 C58.6050342,35.6928381 64.7054463,42.1780389 64.65,50 L64.65,50.3055556 C64.65,50.5833333 64.6194444,51.0027778 64.5722222,51.5805556 C63.7565122,59.0147105 57.4787711,64.645052 50,64.65 Z"/><text x="0" y="115" fill="#000000" font-size="5px" font-weight="bold" font-family="'Helvetica Neue', Helvetica, Arial-Unicode, Arial, Sans-serif">Created by Avana Vana</text><text x="0" y="120" fill="#000000" font-size="5px" font-weight="bold" font-family="'Helvetica Neue', Helvetica, Arial-Unicode, Arial, Sans-serif">from the Noun Project</text></svg>