<svg xmlns="http://www.w3.org/2000/svg" xmlns:xlink="http://www.w3.org/1999/xlink" version="1.1" x="0px" y="0px" viewBox="0 0 100 125" style="enable-background:new 0 0 100 100;" xml:space="preserve"><path d="M65.5,38.2C64.1,24.9,54.3,8.1,43.3,3.9c2.3,11.2-1,26.4-16.8,42.6c0.1-1.4,0.5-8.7-3.5-15.2c1.1,7.4-9.4,20.4-10.9,33.8  c-1.4,11.9,5.5,21.4,16.5,28.8c-1-9.8,7.4-17.5,5.3-25.7c4.7,1.3,6.5,3.3,7.8,7.6c-0.6-4.5-0.3-16.8,13.9-22.7  c-2.5,8.2-2.5,21.1,1.8,25c-1.4-5.1,2.3-9.5,5.8-12.7c-1.7,11.3,8.7,14.6,8.1,26c8-6.5,13.5-15,15.8-23.7c3-11.2-1.8-30.3-17.9-46.3  C71,23.9,71,33.9,65.5,38.2z"/><text x="0" y="115" fill="#000000" font-size="5px" font-weight="bold" font-family="'Helvetica Neue', Helvetica, Arial-Unicode, Arial, Sans-serif">Created by kiddo</text><text x="0" y="120" fill="#000000" font-size="5px" font-weight="bold" font-family="'Helvetica Neue', Helvetica, Arial-Unicode, Arial, Sans-serif">from the Noun Project</text></svg>